<mxfile host="Electron" agent="Mozilla/5.0 (Windows NT 10.0; Win64; x64) AppleWebKit/537.36 (KHTML, like Gecko) draw.io/24.7.17 Chrome/128.0.6613.36 Electron/32.0.1 Safari/537.36" version="24.7.17">
  <diagram name="Page-1" id="7JU8eOdeKkZqP2TUDmUO">
    <mxGraphModel dx="1434" dy="836" grid="1" gridSize="10" guides="1" tooltips="1" connect="1" arrows="1" fold="1" page="1" pageScale="1" pageWidth="850" pageHeight="1100" math="0" shadow="0">
      <root>
        <mxCell id="0" />
        <mxCell id="1" parent="0" />
        <mxCell id="J2B-joHtItrRoAotY3XG-1" value="&lt;span style=&quot;font-size: 20px;&quot;&gt;Người chơi&lt;/span&gt;" style="swimlane;whiteSpace=wrap;html=1;startSize=30;" vertex="1" parent="1">
          <mxGeometry x="3" y="108" width="270" height="732" as="geometry" />
        </mxCell>
        <mxCell id="J2B-joHtItrRoAotY3XG-2" value="" style="ellipse;html=1;shape=startState;fillColor=#000000;strokeColor=#000000;" vertex="1" parent="J2B-joHtItrRoAotY3XG-1">
          <mxGeometry x="120" y="40" width="30" height="30" as="geometry" />
        </mxCell>
        <mxCell id="J2B-joHtItrRoAotY3XG-3" value="" style="edgeStyle=orthogonalEdgeStyle;html=1;verticalAlign=bottom;endArrow=open;endSize=8;strokeColor=#000000;rounded=0;" edge="1" parent="J2B-joHtItrRoAotY3XG-1" source="J2B-joHtItrRoAotY3XG-2">
          <mxGeometry relative="1" as="geometry">
            <mxPoint x="135" y="130" as="targetPoint" />
          </mxGeometry>
        </mxCell>
        <mxCell id="J2B-joHtItrRoAotY3XG-4" value="&lt;font style=&quot;font-size: 16px;&quot;&gt;Người chơi di chuyển chuột&lt;/font&gt;" style="rounded=1;whiteSpace=wrap;html=1;arcSize=40;fontColor=#000000;fillColor=#FFFFFF;strokeColor=#000000;" vertex="1" parent="J2B-joHtItrRoAotY3XG-1">
          <mxGeometry x="30" y="130" width="210" height="70" as="geometry" />
        </mxCell>
        <mxCell id="J2B-joHtItrRoAotY3XG-5" value="&lt;span style=&quot;font-size: 20px;&quot;&gt;Hệ thống&lt;/span&gt;" style="swimlane;whiteSpace=wrap;html=1;startSize=30;fillColor=#FFFFFF;" vertex="1" parent="1">
          <mxGeometry x="273" y="108" width="568" height="732" as="geometry" />
        </mxCell>
        <mxCell id="J2B-joHtItrRoAotY3XG-6" style="edgeStyle=orthogonalEdgeStyle;rounded=0;orthogonalLoop=1;jettySize=auto;html=1;exitX=0.5;exitY=1;exitDx=0;exitDy=0;" edge="1" parent="J2B-joHtItrRoAotY3XG-5">
          <mxGeometry relative="1" as="geometry">
            <mxPoint x="468" y="455" as="sourcePoint" />
            <mxPoint x="468" y="455" as="targetPoint" />
          </mxGeometry>
        </mxCell>
        <mxCell id="J2B-joHtItrRoAotY3XG-20" value="" style="ellipse;html=1;shape=endState;fillColor=#000000;strokeColor=#000000;" vertex="1" parent="J2B-joHtItrRoAotY3XG-5">
          <mxGeometry x="160" y="662" width="30" height="30" as="geometry" />
        </mxCell>
        <mxCell id="J2B-joHtItrRoAotY3XG-22" value="&lt;font style=&quot;font-size: 16px;&quot;&gt;Đọc vị trí con trỏ chuột&lt;/font&gt;" style="rounded=1;whiteSpace=wrap;html=1;arcSize=40;fontColor=#000000;fillColor=#FFFFFF;strokeColor=#000000;" vertex="1" parent="J2B-joHtItrRoAotY3XG-5">
          <mxGeometry x="81" y="139" width="188" height="52" as="geometry" />
        </mxCell>
        <mxCell id="J2B-joHtItrRoAotY3XG-23" value="" style="edgeStyle=orthogonalEdgeStyle;html=1;verticalAlign=bottom;endArrow=open;endSize=8;strokeColor=#000000;rounded=0;" edge="1" source="J2B-joHtItrRoAotY3XG-22" parent="J2B-joHtItrRoAotY3XG-5" target="J2B-joHtItrRoAotY3XG-24">
          <mxGeometry relative="1" as="geometry">
            <mxPoint x="202" y="292" as="targetPoint" />
          </mxGeometry>
        </mxCell>
        <mxCell id="J2B-joHtItrRoAotY3XG-24" value="&lt;font style=&quot;font-size: 16px;&quot;&gt;Vị trí con trỏ thay đổi&lt;/font&gt;" style="rhombus;whiteSpace=wrap;html=1;fontColor=#000000;fillColor=#FFFFFF;strokeColor=#000000;" vertex="1" parent="J2B-joHtItrRoAotY3XG-5">
          <mxGeometry x="70" y="262" width="210" height="70" as="geometry" />
        </mxCell>
        <mxCell id="J2B-joHtItrRoAotY3XG-25" value="&lt;font style=&quot;font-size: 15px;&quot;&gt;Không&lt;/font&gt;" style="edgeStyle=orthogonalEdgeStyle;html=1;align=left;verticalAlign=bottom;endArrow=open;endSize=8;strokeColor=#000000;rounded=0;" edge="1" source="J2B-joHtItrRoAotY3XG-24" parent="J2B-joHtItrRoAotY3XG-5" target="J2B-joHtItrRoAotY3XG-32">
          <mxGeometry x="-0.5581" relative="1" as="geometry">
            <mxPoint x="387" y="297" as="targetPoint" />
            <mxPoint as="offset" />
          </mxGeometry>
        </mxCell>
        <mxCell id="J2B-joHtItrRoAotY3XG-28" value="&lt;font style=&quot;font-size: 17px;&quot;&gt;Cập nhật hướng góc nhìn nhân vật&lt;/font&gt;" style="rounded=1;whiteSpace=wrap;html=1;arcSize=40;fontColor=#000000;fillColor=#FFFFFF;strokeColor=#000000;" vertex="1" parent="J2B-joHtItrRoAotY3XG-5">
          <mxGeometry x="65" y="402" width="220" height="62" as="geometry" />
        </mxCell>
        <mxCell id="J2B-joHtItrRoAotY3XG-29" value="" style="edgeStyle=orthogonalEdgeStyle;html=1;verticalAlign=bottom;endArrow=open;endSize=8;strokeColor=#000000;rounded=0;" edge="1" source="J2B-joHtItrRoAotY3XG-28" parent="J2B-joHtItrRoAotY3XG-5" target="J2B-joHtItrRoAotY3XG-30">
          <mxGeometry relative="1" as="geometry">
            <mxPoint x="175" y="532" as="targetPoint" />
          </mxGeometry>
        </mxCell>
        <mxCell id="J2B-joHtItrRoAotY3XG-26" value="&lt;font style=&quot;font-size: 15px;&quot;&gt;Có&lt;/font&gt;" style="edgeStyle=orthogonalEdgeStyle;html=1;align=left;verticalAlign=top;endArrow=open;endSize=8;strokeColor=#000000;rounded=0;" edge="1" source="J2B-joHtItrRoAotY3XG-24" parent="J2B-joHtItrRoAotY3XG-5" target="J2B-joHtItrRoAotY3XG-28">
          <mxGeometry x="-0.5033" relative="1" as="geometry">
            <mxPoint x="175" y="391.9999999999998" as="targetPoint" />
            <mxPoint as="offset" />
          </mxGeometry>
        </mxCell>
        <mxCell id="J2B-joHtItrRoAotY3XG-30" value="&lt;font style=&quot;font-size: 16px;&quot;&gt;Cập nhật hình ảnh và hiển thị góc nhìn mới&lt;/font&gt;" style="rounded=1;whiteSpace=wrap;html=1;arcSize=40;fontColor=#000000;fillColor=#FFFFFF;strokeColor=#000000;" vertex="1" parent="J2B-joHtItrRoAotY3XG-5">
          <mxGeometry x="70" y="532" width="210" height="52" as="geometry" />
        </mxCell>
        <mxCell id="J2B-joHtItrRoAotY3XG-31" value="" style="edgeStyle=orthogonalEdgeStyle;html=1;verticalAlign=bottom;endArrow=open;endSize=8;strokeColor=#000000;rounded=0;" edge="1" source="J2B-joHtItrRoAotY3XG-30" parent="J2B-joHtItrRoAotY3XG-5" target="J2B-joHtItrRoAotY3XG-20">
          <mxGeometry relative="1" as="geometry">
            <mxPoint x="175" y="652" as="targetPoint" />
          </mxGeometry>
        </mxCell>
        <mxCell id="J2B-joHtItrRoAotY3XG-32" value="&lt;font style=&quot;font-size: 16px;&quot;&gt;Giữ nguyên góc nhìn&lt;/font&gt;" style="rounded=1;whiteSpace=wrap;html=1;arcSize=40;fontColor=#000000;fillColor=#FFFFFF;strokeColor=#000000;" vertex="1" parent="J2B-joHtItrRoAotY3XG-5">
          <mxGeometry x="377" y="271" width="167" height="52" as="geometry" />
        </mxCell>
        <mxCell id="J2B-joHtItrRoAotY3XG-33" value="" style="edgeStyle=orthogonalEdgeStyle;html=1;verticalAlign=bottom;endArrow=open;endSize=8;strokeColor=#000000;rounded=0;entryX=1;entryY=0.5;entryDx=0;entryDy=0;" edge="1" source="J2B-joHtItrRoAotY3XG-32" parent="J2B-joHtItrRoAotY3XG-5" target="J2B-joHtItrRoAotY3XG-20">
          <mxGeometry relative="1" as="geometry">
            <mxPoint x="427" y="532" as="targetPoint" />
            <Array as="points">
              <mxPoint x="467" y="677" />
            </Array>
          </mxGeometry>
        </mxCell>
        <mxCell id="J2B-joHtItrRoAotY3XG-21" value="" style="edgeStyle=orthogonalEdgeStyle;html=1;verticalAlign=bottom;endArrow=open;endSize=8;strokeColor=#000000;rounded=0;" edge="1" parent="1" source="J2B-joHtItrRoAotY3XG-4" target="J2B-joHtItrRoAotY3XG-22">
          <mxGeometry relative="1" as="geometry">
            <mxPoint x="380" y="273" as="targetPoint" />
          </mxGeometry>
        </mxCell>
      </root>
    </mxGraphModel>
  </diagram>
</mxfile>
